<!DOCTYPE svg PUBLIC "-//W3C//DTD SVG 1.1//EN" "http://www.w3.org/Graphics/SVG/1.1/DTD/svg11.dtd">
<!-- Uploaded to: SVG Repo, www.svgrepo.com, Transformed by: SVG Repo Mixer Tools -->
<svg height="800px" width="800px" version="1.1" id="Layer_1" xmlns="http://www.w3.org/2000/svg" xmlns:xlink="http://www.w3.org/1999/xlink" viewBox="0 0 512.001 512.001" xml:space="preserve" fill="#000000" transform="rotate(-45)">
<g id="SVGRepo_bgCarrier" stroke-width="0"/>
<g id="SVGRepo_tracerCarrier" stroke-linecap="round" stroke-linejoin="round"/>
<g id="SVGRepo_iconCarrier"> <path style="fill:#E0E0E3;" d="M431.826,160.798L293.668,3l-0.129-0.135C291.805,1.045,289.383,0,286.894,0 c-4.728,0-8.622,3.582-9.058,8.329l-0.037,0.408v99.961c0,3.274,1.794,6.287,4.674,7.846l0.011,0.006 c18.735,10.147,29.768,29.745,28.793,51.145c-1.293,28.415-24.589,51.552-53.032,52.673c-0.058,0.002-0.117,0.004-0.177,0.007 c-13.899,0.501-27.602-4.226-38.13-13.313c-12.397-10.7-19.272-25.741-19.272-41.95c0-20.263,11.063-38.872,28.869-48.566 l0.01-0.006c2.871-1.563,4.657-4.569,4.657-7.837V9.237V9.163c0.023-3.24-1.915-6.171-4.904-7.418l-1.877-0.783 c-3.12-1.301-6.721-0.516-9.017,1.964l-0.053,0.057L80.144,160.833c-2.266,2.616-2.858,6.229-1.573,9.359l42.839,107.036v22.076 h269.404l-0.288-21.912l42.899-107.18C434.718,167,434.102,163.39,431.826,160.798z"/> <path style="fill:#BABABA;" d="M293.451,2.773l138.399,158.06c2.266,2.616,2.858,6.229,1.573,9.359l-42.839,107.036v22.076h-38.219 v-22.076l42.839-107.036c1.284-3.13,0.693-6.743-1.573-9.359L293.451,2.773L293.451,2.773z"/> <path style="fill:#3E3D43;" d="M129.407,512c-16.801,0-30.469-13.668-30.469-30.469V326.537h314.125v154.995 c0,16.801-13.668,30.469-30.469,30.469H129.407V512z"/> <g> <path style="fill:#2E2D30;" d="M378.968,326.537v154.995c0,16.801-13.668,30.469-30.469,30.469h34.095 c16.801,0,30.469-13.668,30.469-30.469V326.537H378.968z"/> <path style="fill:#2E2D30;" d="M110.655,344.423c-18.789,0-34.074-15.286-34.074-34.074c0-18.789,15.286-34.074,34.074-34.074 h290.691c18.789,0,34.074,15.286,34.074,34.074c0,18.788-15.286,34.074-34.074,34.074H110.655z"/> </g> <path style="fill:#1D1D20;" d="M401.346,276.273h-34.095c18.789,0,34.074,15.286,34.074,34.074 c0,18.788-15.286,34.074-34.074,34.074h34.095c18.789,0,34.074-15.286,34.074-34.074 C435.421,291.559,420.135,276.273,401.346,276.273z"/> </g>
</svg>